# xmcd
#
# Track frame offsets: 
#        150
#        12182
#        29366
#        54416
#        68666
#        76157
#        102082
#        116932
#        137157
#        156957
#        160037
#        175337
#        191537
#        209087
#        228287
#
# Disc length: 3243 seconds
#
# Revision: 0
# Processed by: cddbd v1.5.2PL0 Copyright (c) Steve Scherf et al.
# Submitted via: ExactAudioCopy v0.99pb5
#
DISCID=c40ca90f
DTITLE=Aztra - öis
DYEAR=2010
DGENRE=Hip-Hop
TTITLE0=Pääkallopaikalla
TTITLE1=Vaarallisii
TTITLE2=Leprassa
TTITLE3=Hyvizz
TTITLE4=Dingoilu skitti
TTITLE5=Öis (feat. Raipati and Laineen Kasperi)
TTITLE6=Mite siel? (feat. Laineen Kasperi)
TTITLE7=Vanhat ajat
TTITLE8=Paha maa (feat. Jahvice)
TTITLE9=Mitäs ukko skitti
TTITLE10=Syvissä vesissä
TTITLE11=Saatat oppii
TTITLE12=Helvetti liekeis (feat. Raipati)
TTITLE13=Paratiisi
TTITLE14=Anteeks
EXTD=
EXTT0=
EXTT1=
EXTT2=
EXTT3=
EXTT4=
EXTT5=
EXTT6=
EXTT7=
EXTT8=
EXTT9=
EXTT10=
EXTT11=
EXTT12=
EXTT13=
EXTT14=
PLAYORDER=
